<svg xmlns="http://www.w3.org/2000/svg" xmlns:xlink="http://www.w3.org/1999/xlink" width="1086.82" height="789.35" xmlns:v="https://vecta.io/nano"><style><![CDATA[.B{fill:#c49cfc}.C{opacity:.1}.D{fill:#fff}.E{opacity:.2}.F{fill:#e6e8ec}.G{opacity:.05}.H{fill:#575988}.I{fill:#f7c4a7}.J{stroke:#535461}.K{stroke-miterlimit:10}.L{stroke-width:2}.M{fill:#535461}.N{fill:#fdc2cc}.O{fill:#f1f1f4}.P{fill:#f3b5b7}.Q{fill:#714b4f}]]></style><defs><linearGradient id="A" x1="687.58" y1="652.36" x2="687.58" y2="167.98" gradientUnits="userSpaceOnUse"><stop offset="0" stop-color="gray" stop-opacity=".25"/><stop offset=".54" stop-color="gray" stop-opacity=".12"/><stop offset="1" stop-color="gray" stop-opacity=".1"/></linearGradient><linearGradient id="B" x1="357.66" y1="752.53" x2="357.66" y2="310.18" xlink:href="#A"/><linearGradient id="C" x1="211.31" y1="788.29" x2="211.31" y2="442.62" xlink:href="#A"/><linearGradient id="D" x1="462.24" y1="798.83" x2="462.24" y2="605.67" xlink:href="#A"/><linearGradient id="E" x1="382.57" y1="625.81" x2="473.48" y2="625.81" xlink:href="#A"/><linearGradient id="F" x1="312.55" y1="844.47" x2="312.55" y2="415.5" xlink:href="#A"/><linearGradient id="G" x1="203.72" y1="516.5" x2="203.72" y2="437.56" xlink:href="#A"/><linearGradient id="H" x1="1061.94" y1="708.58" x2="1061.94" y2="289.15" xlink:href="#A"/><linearGradient id="I" x1="917.3" y1="444.63" x2="917.3" y2="300.43" xlink:href="#A"/><path id="J" d="M1043.97 145.34s-40.9-6.5-44.6 30.13-78.62 41.72-78.62 41.72l1.4.93c61.84 40.6 121 25.86 112-28-3.27-20.08-3-40.24 9.83-44.78z"/><path id="K" d="M431.67 220.63h71.52v7.95h-71.52z"/><path id="L" d="M356.18 260.36h147v7.95h-147z"/><path id="M" d="M167.37 337.2h83.48v62.92h-83.48z"/><path id="N" d="M175.54 342.66h27.83v15.73h-27.83z"/><path id="O" d="M210.02 342.66h32.67v3.63h-32.67z"/><path id="P" d="M175.54 360.8h67.15v3.63h-67.15z"/><path id="Q" d="M175.54 378.96h61.7v3.63h-61.7z"/><path id="R" d="M267.5 342.66h27.83v15.73H267.5z"/><path id="S" d="M267.5 360.8h67.15v3.63H267.5z"/><path id="T" d="M105.05 438.6h99.34v74.87h-99.34z"/><path id="U" d="M114.77 550.9h79.9v4.32h-79.9z"/><path id="V" d="M449.26 647.7l-20.64-8.5c-9.1-3.64-3.64 8.5-3.64 8.5s15.18 4.25 15.18 4.86 12.75 1.2 12.75 1.2z"/><path id="W" d="M498.4 599.73s-20.64-10.93-24.3 10.32a86.75 86.75 0 0 1-15.15 35.83s-10.93 2.43-15.18-1.82c0 0 10.32 12.14 5.46 13.36 0 0 10.93 7.9 15.8 5.46s8.5-18.82 10.32-23.07 8.5-41.3 23.05-40.08z"/><path id="X" d="M317.1 704.66s-14.44 10.07-26.8 6.93-15.7-2-17.15 2.1c-1.33 3.72 34.5 23.4 40.22 26.52a.65.65 0 0 0 1-.43c.4-1.65 1.33-5.2 2.33-5.46 1.3-.35 7.3-11.52 7-15.93s-6.6-13.72-6.6-13.72z"/><path id="Y" d="M435.9 680.48l-40.68-5.46s-66.18 31.57-74.07 32.18l1.82 14h12.14c4.86 0 52.2-10.32 58.9-20.64a16.26 16.26 0 0 1 11.54 1.21c6.07 3 64.36 21.86 64.36 21.86z"/><path id="Z" d="M320.7 474.53s-10.52 35.5-16.65 39.88-43.38 26.73-54.34 21.47c0 0-2.63 13.15 1.3 16.2l41.2-1.75s26.73-3.5 31.1-16.65 9.64-35.5 9.64-35.5z"/><path id="a" d="M1003.86 382.53s-40.73 5.66-49.22 4L932 365.03s-21.5 16.4 12.45 27.15l63.36 7.35z"/><path id="b" d="M1018.57 612.2l-19.8 17.54s-11.3 2.83-17.54 2.26-9.05 9.62 5.66 10.75 61.66-2.26 61.66-2.26 4.53-18.1-9.05-28.3z"/><path id="c" d="M1044.03 615.03c-2.95 3.64-7.1 5-11.46 5.25-9.9.47-20.78-5.25-20.78-5.25 7.35-6.22-11.3-61.1-11.3-61.1-15.27-7.35-14.14-23.76-14.14-23.76l6.25-111.44 15.84-9.62 12.5 9.58 11.84 9.1a47.6 47.6 0 0 1 1.48 8.83c1.37 20.8-15.06 25.68-15.06 25.68s6.8 20.93.57 40.16 4.53 36.2 4.53 36.2 20.37 58.83 17 62.23 2.75 14.15 2.75 14.15z"/></defs><path d="M153.4 43.62c-8.06-.23-16.32 0-23.88 2.32-20.57 6.32-30.32 27-27.15 44.87s16.2 33.44 29.74 47.67 28.2 28.3 35.6 45.3c3.7 8.5 5.43 18 1.67 26.48-5.8 13.07-23.3 20.37-40.08 21.9s-33.65-1.44-50.5-2.43c-7.07-.4-14.34-.46-21 1.45-7.3 2.08-13.4 6.33-19 10.76C16.93 259.3-.6 283 2.27 307.88c3.2 28.23 31.74 50.54 63 62.5 10.35 4 21.3 7.18 30.4 12.84 24 14.93 29.4 42.93 27 67.64s-10.53 49.45-6 73.94c5.33 28.5 28.92 54.23 60.74 66.25 28.35 10.7 63.83 10 89-5.1 12.27-7.38 21.55-17.63 29.62-28.23a227.74 227.74 0 0 0 29.45-51c3.5-8.5 6.8-17.62 15-23.52 5-3.63 11.48-5.66 17.9-7.24 19.32-4.76 39.67-6.06 59.17-10.3s39.07-12.15 49.67-26.28c15-20 8-45.62 8.07-69.14.12-53.66 39.1-101.7 53.5-154 4.7-17.1 6.45-36-4.05-51.25-7.13-10.35-19.16-17.82-31.8-23.6-27.8-12.7-59.42-18.34-90.5-23.84-43.2-7.64-95.68-8.63-129.17-33.35-32.1-23.68-76.06-40.6-119.85-40.6z" class="B E"/><g opacity=".5"><path d="M27.34 349.35c-2.14 3.16-3.9 7.75-1.1 13.1 5.5 10.5 19.1 8.34 25.7 18.4a18.38 18.38 0 0 1 2.85 9.29c.25 5.7-1.5 10.17-2.42 15.18A25.66 25.66 0 0 0 55 422.65a30.62 30.62 0 0 0 14 12.49c5.12 2.26 10 2.84 14.9 3.94a91.71 91.71 0 0 1 17.67 6 33.36 33.36 0 0 1 7.54 4.4 54.91 54.91 0 0 1 7.63 8.22L138 483.96a75.18 75.18 0 0 0 9 9.84 54.21 54.21 0 0 0 11.72 7.21c8.5 4.23 17.37 8.56 24.74 8.07s12.5-7.6 9-17.54c-3.3-9.46-12.6-17.43-16.82-26.87-6.65-14.88 2.06-26-3.5-40.9-5.34-14.32-20.3-23.92-29.87-37-6.86-9.3-10.68-20.12-16.86-29.9-9-14-22.4-24.7-35-30.13a67.93 67.93 0 0 0-35.16-4.87c-4.56.5-9.05 1.35-12.3 4.08-3.44 2.9-3 8.32-5.24 12.17-2.57 4.43-7.47 6.94-10.38 11.22z" class="B"/><g fill="none" class="J K L"><path d="M40.7 329.2s106.48 99.55 149.42 177.06"/><path d="M26.65 363.06s42.55-8.27 72 24.9m-41.75 37.6s47-32.87 63.26-13.75M90.2 326.5s-4.95 25.16 12.86 66.26m69.04 31.4s-4.16 16.5-37.6 4.37m3.64 53.35s20.4-23.6 11.13-35.17"/></g></g><path d="M7.33 233.88c-5 5.9-9.68 14.1-6 22.16 7.08 15.84 33.3 8.1 42.64 22.84 2.8 4.4 3.18 9.8 2.53 14.6-1.26 9.4-5.92 17.4-9.14 26s-4.9 19-.35 28.08c4.37 8.8 13.58 14.34 22.5 16.55s17.86 1.7 26.77 2a148.2 148.2 0 0 1 31.35 4.62 43.31 43.31 0 0 1 12.78 5.14c4.55 2.9 8.23 7.18 11.83 11.38l32 37.3c4.25 5 8.6 10 13.86 13.67 6.08 4.23 13 6.38 19.8 8.45 14.65 4.48 30 9 44 5.93s25.75-16.45 22.25-31.94c-3.33-14.75-18.35-25.2-23.4-39.66-8-22.77 11.75-43.9 5.82-67.06-5.68-22.22-30.86-33.68-44.86-52.5-10-13.48-13.94-30.34-22.68-44.68-12.62-20.7-34.62-34.4-56.52-39.62s-43.93-2.78-64.47 2.43c-8.7 2.2-17.4 5-24.3 10.52-7.33 5.87-8.17 14.78-13.5 21.86-6.2 8.23-16.16 13.92-22.9 21.92z" class="B"/><g fill="none" class="J K L"><path d="M38.48 196.28s169.67 133.5 226.76 249.6"/><path d="M1.87 256.88s82.37-26.65 127.54 19.66m-89.74 75.34s98.1-69 122.9-42.1m-30.3-133.02s-16.9 43.4 4 106.46m120.04 31.35s-12.8 28.73-71.9 18.68m-9.3 87.73s45.47-45.48 31.57-62"/></g><g class="B"><ellipse cx="617.97" cy="647.16" rx="465" ry="124.52" class="C"/><path d="M980.15.4s-35.83 35.83-15.6 89S929.87 231 929.87 231l1.68-.28c73.6-13 110.16-97.16 69.24-159.7-15.2-23.24-27.7-50.5-20.64-70.62z"/></g><path d="M980.15.4s-20.23 43.92 0 79.75 3.47 136.4-50.28 150.84" fill="none" class="J K L"/><use xlink:href="#J" class="B"/><use xlink:href="#J" fill="#f5f5f5" class="E"/><path d="M1043.97 145.34s-31.74 7-29.13 35.82-47.13 63.45-94.1 36M246.7 279.8s-13.26-45 2.5-78.14a71.09 71.09 0 0 0 5.75-44.6 119.57 119.57 0 0 0-6.31-20.93" fill="none" class="J K L"/><path d="M258.4 115.18c0 5.52-10 21.5-10 21.5s-10-16-10-21.5a10 10 0 1 1 20 0zm16.53 30.56c-3 4.63-20.08 12.63-20.08 12.63s.3-18.86 3.3-23.5a10 10 0 1 1 16.77 10.86zm-.73 52.22c-4.93 2.48-23.7.77-23.7.77s9.8-16.12 14.7-18.6a10 10 0 1 1 9 17.84zm-9.43 39.38c-4.44 3.28-23.24 4.76-23.24 4.76s6.92-17.54 11.36-20.82a10 10 0 1 1 11.88 16.06zm-30.9-77.9c4 3.84 22.4 7.83 22.4 7.83s-4.5-18.3-8.47-22.15a10 10 0 1 0-13.92 14.33zm-10.48 46.2c4.93 2.48 23.7.77 23.7.77s-9.8-16.12-14.7-18.6a10 10 0 0 0-9 17.84zm-4 46.3c4.44 3.28 23.24 4.76 23.24 4.76s-6.92-17.54-11.36-20.82a10 10 0 0 0-11.88 16.06z" class="B"/><path d="M1129,596.62h-85.09a28.36,28.36,0,0,0,3-12.67V196.47A28.49,28.49,0,0,0,1018.42,168H359.75a28.49,28.49,0,0,0-28.49,28.49V583.95a28.36,28.36,0,0,0,3,12.67h-88.1a7.53,7.53,0,0,0-7.53,7.53v6.07a42.14,42.14,0,0,0,42.14,42.14h813.68a42.14,42.14,0,0,0,42.14-42.14v-6.07A7.53,7.53,0,0,0,1129,596.62ZM604.71,620.72l-7.3-8.29H778.52l-8.08,8.29Z" transform="translate(-56.59 -55.12)" fill="url(#A)"/><rect x="282.74" y="118.35" width="699.44" height="434.39" rx="23.26" class="M"/><path d="M297.47 181.67H966v354.87H297.47z" class="O"/><circle cx="631.73" cy="150.74" r="5.89" class="D"/><path d="M734.95 537.27l-23 23.56h-162l-20.76-23.56H199.54a7.36 7.36 0 0 0-7.36 7.36v5.94a41.18 41.18 0 0 0 41.23 41.18h795.2a41.18 41.18 0 0 0 41.18-41.18v-5.94a7.36 7.36 0 0 0-7.36-7.36z" class="M"/><path d="M338.3 208.7h182.77v137.74H338.3z" class="D"/><path d="M356.18 220.63h60.92v34.43h-60.92z" class="B E"/><g class="F"><use xlink:href="#K"/><path d="M431.67 233.87H482v7.95h-50.33z"/><use xlink:href="#K" y="26.47"/><use xlink:href="#L"/><use xlink:href="#L" y="13.24"/><use xlink:href="#L" y="26.49"/><path d="M356.18 300.1h135.1v7.95h-135.1z"/><use xlink:href="#L" y="52.97"/><use xlink:href="#L" y="66.22"/></g><path d="M539.6 208.7h182.77v137.74H539.6z" class="D"/><path d="M557.48 220.63h60.92v34.43h-60.92z" class="B E"/><g class="F"><use xlink:href="#K" x="201.31"/><path d="M632.98 233.87h50.33v7.95h-50.33z"/><use xlink:href="#K" x="201.31" y="26.47"/><use xlink:href="#L" x="201.3"/><use xlink:href="#L" x="201.3" y="13.24"/><use xlink:href="#L" x="201.3" y="26.49"/><path d="M557.48 300.1h135.1v7.95h-135.1z"/><use xlink:href="#L" x="201.3" y="52.97"/><use xlink:href="#L" x="201.3" y="66.22"/></g><path d="M740.9 208.7h182.77v137.74H740.9z" class="D"/><path d="M758.8 220.63h60.92v34.43H758.8z" class="B E"/><g class="F"><use xlink:href="#K" x="402.61"/><path d="M834.28 233.87h50.33v7.95h-50.33z"/><use xlink:href="#K" x="402.61" y="26.47"/><use xlink:href="#L" x="402.62"/><use xlink:href="#L" x="402.62" y="13.24"/><use xlink:href="#L" x="402.62" y="26.49"/><path d="M758.8 300.1h135.1v7.95H758.8z"/><use xlink:href="#L" x="402.62" y="52.97"/><use xlink:href="#L" x="402.62" y="66.22"/></g><path d="M338.3 363.66h182.77V501.4H338.3z" class="D"/><path d="M356.18 375.58h60.92V410h-60.92z" class="B E"/><g class="F"><use xlink:href="#K" y="154.95"/><path d="M431.67 388.83H482v7.95h-50.33z"/><use xlink:href="#K" y="181.44"/><use xlink:href="#L" y="154.94"/><use xlink:href="#L" y="168.2"/><use xlink:href="#L" y="181.44"/><path d="M356.18 455.05h135.1V463h-135.1z"/><use xlink:href="#L" y="207.94"/><use xlink:href="#L" y="221.17"/></g><path d="M539.6 363.66h182.77V501.4H539.6z" class="D"/><path d="M557.48 375.58h60.92V410h-60.92z" class="B E"/><g class="F"><use xlink:href="#K" x="201.31" y="154.95"/><path d="M632.98 388.83h50.33v7.95h-50.33z"/><use xlink:href="#K" x="201.31" y="181.44"/><use xlink:href="#L" x="201.3" y="154.94"/><use xlink:href="#L" x="201.3" y="168.2"/><use xlink:href="#L" x="201.3" y="181.44"/><path d="M557.48 455.05h135.1V463h-135.1z"/><use xlink:href="#L" x="201.3" y="207.94"/><use xlink:href="#L" x="201.3" y="221.17"/></g><path d="M740.9 363.66h182.77V501.4H740.9z" class="C"/><path d="M498.66 310.18h-282A25.83 25.83 0 0 0 190.78 336v390.74a25.83 25.83 0 0 0 25.87 25.8h282a25.83 25.83 0 0 0 25.87-25.8V336a25.83 25.83 0 0 0-25.86-25.82z" transform="translate(-56.59 -55.12)" fill="url(#B)"/><rect x="138.17" y="260.36" width="325.8" height="433.08" rx="20" class="M"/><path d="M154.72 301.33h292.7v351.15h-292.7z" class="O"/><g class="D"><circle cx="299.74" cy="280.23" r="3.97"/><circle cx="299.74" cy="672.25" r="11.92"/><use xlink:href="#M"/></g><use xlink:href="#N" class="B E"/><g class="F"><use xlink:href="#O"/><path d="M210.02 348.7h23v3.63h-23z"/><use xlink:href="#O" y="12.1"/><use xlink:href="#P"/><use xlink:href="#P" y="6.06"/><use xlink:href="#P" y="12.1"/><use xlink:href="#Q"/><use xlink:href="#P" y="24.2"/><use xlink:href="#P" y="30.26"/></g><use xlink:href="#M" x="91.96" class="D"/><use xlink:href="#R" class="B E"/><g class="F"><use xlink:href="#O" x="91.96"/><path d="M301.98 348.7h23v3.63h-23z"/><use xlink:href="#O" x="91.96" y="12.1"/><use xlink:href="#S"/><use xlink:href="#S" y="6.06"/><use xlink:href="#S" y="12.1"/><use xlink:href="#Q" x="91.96"/><use xlink:href="#S" y="24.2"/><use xlink:href="#S" y="30.26"/></g><use xlink:href="#M" x="183.91" class="D"/><use xlink:href="#N" x="183.91" class="B E"/><g class="F"><use xlink:href="#O" x="183.91"/><path d="M393.93 348.7h23v3.63h-23z"/><use xlink:href="#O" x="183.91" y="12.1"/><use xlink:href="#P" x="183.91"/><use xlink:href="#P" x="183.91" y="6.06"/><use xlink:href="#P" x="183.91" y="12.1"/><use xlink:href="#Q" x="183.91"/><use xlink:href="#P" x="183.91" y="24.2"/><use xlink:href="#P" x="183.91" y="30.26"/></g><use xlink:href="#M" y="70.8" class="D"/><use xlink:href="#N" y="70.78" class="B E"/><g class="F"><use xlink:href="#O" y="70.78"/><path d="M210.02 419.5h23v3.63h-23z"/><use xlink:href="#O" y="82.88"/><use xlink:href="#P" y="70.8"/><use xlink:href="#P" y="76.84"/><use xlink:href="#P" y="82.9"/><use xlink:href="#Q" y="70.78"/><use xlink:href="#P" y="95"/><use xlink:href="#P" y="101.04"/></g><use xlink:href="#M" x="91.96" y="70.8" class="D"/><use xlink:href="#R" y="70.78" class="B E"/><g class="F"><use xlink:href="#O" x="91.96" y="70.78"/><path d="M301.98 419.5h23v3.63h-23z"/><use xlink:href="#O" x="91.96" y="82.88"/><use xlink:href="#S" y="70.8"/><use xlink:href="#S" y="76.84"/><use xlink:href="#S" y="82.9"/><use xlink:href="#Q" x="91.96" y="70.78"/><use xlink:href="#S" y="95"/><use xlink:href="#S" y="101.04"/></g><use xlink:href="#M" x="183.91" y="70.8" class="D"/><use xlink:href="#N" x="183.91" y="70.78" class="B E"/><g class="F"><use xlink:href="#O" x="183.91" y="70.78"/><path d="M393.93 419.5h23v3.63h-23z"/><use xlink:href="#O" x="183.91" y="82.88"/><use xlink:href="#P" x="183.91" y="70.8"/><use xlink:href="#P" x="183.91" y="76.84"/><use xlink:href="#P" x="183.91" y="82.9"/><use xlink:href="#Q" x="183.91" y="70.78"/><use xlink:href="#P" x="183.91" y="95"/><use xlink:href="#P" x="183.91" y="101.04"/></g><use xlink:href="#M" y="144.37" class="D"/><use xlink:href="#N" y="144.36" class="B E"/><g class="F"><use xlink:href="#O" y="144.36"/><path d="M210.02 493.07h23v3.63h-23z"/><use xlink:href="#O" y="156.46"/><use xlink:href="#P" y="144.37"/><use xlink:href="#P" y="150.42"/><use xlink:href="#P" y="156.47"/><use xlink:href="#Q" y="144.36"/><path d="M175.54 529.37h67.15V533h-67.15z"/><use xlink:href="#P" y="174.62"/></g><use xlink:href="#M" x="91.96" y="144.37" class="D"/><use xlink:href="#R" y="144.36" class="B E"/><g class="F"><use xlink:href="#O" x="91.96" y="144.36"/><path d="M301.98 493.07h23v3.63h-23z"/><use xlink:href="#O" x="91.96" y="156.46"/><use xlink:href="#S" y="144.37"/><use xlink:href="#S" y="150.42"/><use xlink:href="#S" y="156.47"/><use xlink:href="#Q" x="91.96" y="144.36"/><path d="M267.5 529.37h67.15V533H267.5z"/><use xlink:href="#S" y="174.62"/></g><use xlink:href="#M" x="183.91" y="144.37" class="D"/><use xlink:href="#N" x="183.91" y="144.36" class="B E"/><g class="F"><use xlink:href="#O" x="183.91" y="144.36"/><path d="M393.93 493.07h23v3.63h-23z"/><use xlink:href="#O" x="183.91" y="156.46"/><use xlink:href="#P" x="183.91" y="144.37"/><use xlink:href="#P" x="183.91" y="150.42"/><use xlink:href="#P" x="183.91" y="156.47"/><use xlink:href="#Q" x="183.91" y="144.36"/><path d="M359.45 529.37h67.15V533h-67.15z"/><use xlink:href="#P" x="183.91" y="174.62"/></g><use xlink:href="#M" y="215.15" class="D"/><use xlink:href="#N" y="215.14" class="B E"/><g class="F"><use xlink:href="#O" y="215.14"/><path d="M210.02 563.85h23v3.63h-23z"/><use xlink:href="#O" y="227.24"/><use xlink:href="#P" y="215.15"/><use xlink:href="#P" y="221.2"/><use xlink:href="#P" y="227.25"/><use xlink:href="#Q" y="215.14"/><use xlink:href="#P" y="239.35"/><use xlink:href="#P" y="245.4"/></g><use xlink:href="#M" x="91.96" y="215.15" class="D"/><use xlink:href="#R" y="215.14" class="B E"/><g class="F"><use xlink:href="#O" x="91.96" y="215.14"/><path d="M301.98 563.85h23v3.63h-23z"/><use xlink:href="#O" x="91.96" y="227.24"/><use xlink:href="#S" y="215.15"/><use xlink:href="#S" y="221.2"/><use xlink:href="#S" y="227.25"/><use xlink:href="#Q" x="91.96" y="215.14"/><use xlink:href="#S" y="239.35"/><use xlink:href="#S" y="245.4"/></g><use xlink:href="#M" x="183.91" y="215.15" class="C"/><path d="M283.7 442.62H138.9a14.32 14.32 0 0 0-14.35 14.29V774a14.32 14.32 0 0 0 14.35 14.29h144.8A14.32 14.32 0 0 0 298.06 774V456.92a14.32 14.32 0 0 0-14.35-14.3z" transform="translate(-56.59 -55.12)" fill="url(#C)"/><rect x="69.3" y="390.16" width="170.85" height="341.7" rx="11" class="M"/><path d="M81.88 421.94h145.68v278.12H81.88z" class="O"/><g class="D"><circle cx="137.5" cy="406.05" r="1.32"/><rect x="144.13" y="404.72" width="29.14" height="2.65" rx="1"/><circle cx="154.06" cy="713.31" r="9.27"/></g><use xlink:href="#T" class="C"/><use xlink:href="#T" y="84.22" class="D"/><path d="M114.77 529.3h33.1v18.72h-33.1z" class="B E"/><g class="F"><path d="M155.8 529.3h38.87v4.32H155.8zm0 7.2h27.36v4.32H155.8zm0 7.2h38.87v4.3H155.8z"/><use xlink:href="#U"/><use xlink:href="#U" y="7.2"/><use xlink:href="#U" y="14.4"/><path d="M114.77 572.5h73.43v4.32h-73.43zm0 7.2h79.9v4.3h-79.9z"/><use xlink:href="#U" y="36"/></g><use xlink:href="#T" y="168.62" class="D"/><path d="M114.77 613.7h33.1v18.72h-33.1z" class="B E"/><g class="F"><path d="M155.8 613.7h38.87v4.32H155.8zm0 7.2h27.36v4.32H155.8zm0 7.2h38.87v4.32H155.8z"/><use xlink:href="#U" y="84.4"/><use xlink:href="#U" y="91.6"/><use xlink:href="#U" y="98.8"/><path d="M114.77 656.9h73.43v4.32h-73.43z"/><use xlink:href="#U" y="113.2"/><use xlink:href="#U" y="120.4"/></g><path d="M600.25 697.7c-6.72-8.15-14.86-17.52-13.72-28.37.92-8.8-1.3-16.9-.85-25.72.62-12.52-1.9-22.33-10.93-30.36-5.27-4.7-14.08-8.38-16.7-7.44-5.2 1.86-10.87 1.15-16.22 2.4-4.06 1-6.77 2.4-8.44 4.24-3.37 3-3.43 7.26-1.9 11.8a19.94 19.94 0 0 0 9.88 28c-3.75 1.56-7 5.17-8.25 12.5a85.41 85.41 0 0 1-4 14.76 24 24 0 0 1-2.44 1c.18.07.37.12.56.2l-1.18.44a12.88 12.88 0 0 0 2.22.64 84.83 84.83 0 0 1-10.9 19.87c0 0-11.32 2.5-15.72-1.87 0 0 .72.84 1.7 2.1l-17.4-7.1c-4.38-1.74-5.5 0-5.45 2.42a8.09 8.09 0 0 0-3.06 1 29.55 29.55 0 0 0-4.06-2.18c-2.52-.62-10.7-5-18.87 10-4.76 8.73-17 24.65-26.35 36.44-18.25 8.4-42 19-50.82 21.7h-5.64l-1.26-2-.44.3-.2-.3s-11.1 7.7-22.4 7.75a21.22 21.22 0 0 1-4.76-.62c-5.2-1.3-8.84-1.9-11.45-1.84-3.1-.05-4.84.68-5.93 2.06h0a5.43 5.43 0 0 0-.39.57h0a6.71 6.71 0 0 0-.33.63h0a11.01 11.01 0 0 0-.28.69 1.41 1.41 0 0 0 .35 1.18 6.32 6.32 0 0 0 .49.62l.3.34a50 50 0 0 0 7.23 5.59l2.94 1.93 1.95 1.24 1.74 1.1 1.48.9 1.4.85.83.5 1.56.93 1.26.75c3.3 2 6.6 3.84 9.56 5.5l2.28 1.28 1.33.74 2.3 1.28 1.6.87.74.4.8.43.16.1 1.38.75a2 2 0 0 0 1.61-.44c.4-1.7 1.38-5.34 2.42-5.62s5.58-8.24 6.87-13.54h12.27a54.11 54.11 0 0 0 7.17-1.09c-3.17 2.26-6.3 3.68-8.75 3.07-5.16-1.28-10.05 1.86-10.54 5l-.06.2v1.44c0 .06 0 .17.06.25s0 .1 0 .16a3 3 0 0 0 .13.32v.08a3.27 3.27 0 0 0 .23.38l.1.13.2.25.14.14.23.22.17.14.27.2.2.13.33.2.22.12.4.2.2.1c.22.1.45.18.7.26s.86.26 1.4.4l.53.13.77.18.4.1 1.68.34.82.15.67.12 1.54.27 3 .5 2.65.4 3.45.5.76.1 1.24.17 1.78.24 1.22.16 3.15.4 3 .36 7.46.87 4.05.45.58.06 2.54.28 1.1.12 1.57.16h.17l1 .1a.91.91 0 0 0 1-.89h0v-.1a.89.89 0 0 0 .15-.48 20.65 20.65 0 0 1 .56-4.44 21.96 21.96 0 0 1 .23-.76l.1-.3c.1-.3.22-.62.35-.94a6.75 6.75 0 0 0 .23-.69l.06-.22c0-.12.06-.25.1-.38 1.27-4.32-.26-12.37-.7-15.53a16.86 16.86 0 0 0-.69-3 1.22 1.22 0 0 0 .24 0 7.16 7.16 0 0 0 1.82-1c9.27-3.3 17.1-7.1 19.57-10.88a16.94 16.94 0 0 1 12 1.25c4.8 2.4 41.13 14.24 58.05 19.72 3 2.62 5.42 4.15 6.73 4 0 0 21.53 3.48 30.2-3.32.77.53 1.25.82 1.25.82s12.58-6.25 14.47-14.37c.6-2.63 1.16-6.52 1.72-10.82a15.73 15.73 0 0 0 4.57-11.06c.4-13.65 5.68-29.24 9.6-43.13 4.76.37 6.6-.52 11-2.68l-.2-.25zm-72.12 20.44l-2.4-.8a20 20 0 0 0 2.09-3.48zm-13.54 5.74l14.58 8.75.13 1.78a12.77 12.77 0 0 0 .12 4.07c-6.42-5.7-13.94-12.64-14.82-14.6zm-5.95-12.74c-1.6-.66-2.9-1.25-3.8-1.74l3.38.2a7.55 7.55 0 0 1 .44 1.53zm-39 14.25s2.52-5.62 8.18 3.75c.88 1.46 2.5 3.77 4.64 6.65L466 733.6a24 24 0 0 0 3.62-8.19z" transform="translate(-56.59 -55.12)" fill="url(#D)"/><use xlink:href="#V" class="I"/><use xlink:href="#V" class="G"/><use xlink:href="#W" class="H"/><use xlink:href="#W" class="C"/><g class="I"><path d="M486.9 592.44s12.75 14.57 13.36 26.7 14.57-12.75 15.8-13.36-12.15-21.24-13.37-27.9-15.78 14.56-15.78 14.56z"/><path d="M495.7 598.67l-8.04 7.28 3.8 15.33 10.32-9.7-1.2-9.7-4.86-3.2zM327.83 706.6h-13.96l5.46 13.35 13.36-3.64-4.86-9.7z"/></g><use xlink:href="#X" class="C"/><use xlink:href="#X" x="-0.6" class="P"/><use xlink:href="#Y" class="H"/><use xlink:href="#Y" class="C"/><path d="M363.65 699.3l-6.68 8.5 6.68 3.64 9.72-7.28-9.72-4.86z" class="I"/><path d="M479.6 689.58s-21.84-18.7-23.37-22.1-37.34-26.46-39.77-27.07-10.32-4.86-18.2 9.7-37 49.78-37 49.78 9.1 12.75 12.14 12.14 37-29.14 39.46-43.1c0 0 2.43-5.46 7.9 3.64s40.68 52.82 47.36 52.2c0 0 26.1 4.25 31.57-6.07s-20.07-29.13-20.07-29.13z" class="H"/><path fill="url(#E)" d="M382.57 591.56h90.9v68.5h-90.9z"/><use xlink:href="#M" x="218.91" y="257.15" class="D"/><use xlink:href="#N" x="218.91" y="257.14" class="B E"/><g class="F"><use xlink:href="#O" x="218.91" y="257.14"/><path d="M428.93 605.85h23v3.63h-23z"/><use xlink:href="#O" x="218.91" y="269.24"/><use xlink:href="#P" x="218.91" y="257.15"/><use xlink:href="#P" x="218.91" y="263.2"/><use xlink:href="#P" x="218.91" y="269.25"/><use xlink:href="#Q" x="218.91" y="257.14"/><use xlink:href="#P" x="218.91" y="281.35"/><use xlink:href="#P" x="218.91" y="287.4"/></g><path d="M492.06 600.64s-7.6 3.34-8.2 17.3-14 37.64-14 37.64l1.2 27.93s14.57 14.57 15.8 23.68 11.55 15.18 11.55 15.18 12.14-6.07 14-14 3-27.32 6.07-34.6 1.2-52.82 1.2-52.82l-9.1-15.8-4.86-5.46-12.75 14.57s-6.98-9.38-.9-13.62z" class="P"/><path d="M474.15 674.4s-1.82-21.86 3.64-26.7l10.93-31s3.95-14.87 3.34-16.1-14.27 11.84-14.27 11.84l-9.1 32.18 2.43 34z" class="C"/><path d="M473.54 674.4s-1.82-21.86 3.64-26.7l10.93-31s4.25-15.18 3.64-16.4-14.57 12.14-14.57 12.14l-9.1 32.18 2.43 34z" class="H"/><path d="M477.8 664.7s-30.38-9.7-32.18-12.14-21.25-18.2-27.93-7.3 24.9 14 24.9 14l32.18 19.43z" class="I"/><path d="M364.96 707.74l-9-1.62s-14.72 18.85-22.38 16.94-14.72 6.34-6.62 9c7.32 2.4 38.9 5.74 44.95 6.36a.88.88 0 0 0 1-.86 19.33 19.33 0 0 1 1.34-6.84c1.62-4 0-12.52-.45-15.76a15.68 15.68 0 0 0-1.77-5.45z" class="C"/><path d="M364.82 708.33l-9-1.62s-14.7 18.86-22.4 16.94-14.72 6.34-6.62 9c7.32 2.4 38.9 5.74 44.95 6.36a.88.88 0 0 0 1-.86 19.33 19.33 0 0 1 1.34-6.84c1.62-4 0-12.52-.45-15.76a15.68 15.68 0 0 0-1.77-5.45z" class="P"/><circle cx="491.45" cy="580" r="19.43" class="C"/><circle cx="489.63" cy="580" r="19.43" class="I"/><path d="M508.75 599.12s23.07 7.9 23.07 24.3-12.75 42.5-13.36 63.75-34 18.2-34 18.2-4.86-71.64 0-77.1 26.72-26.7 24.3-29.14z" class="H"/><path d="M504.5 633.12s-8.5 37.64-28.54 31c0 0-10.32 15.18-3 21.86 0 0 17.6 4.25 29.14-7.3s20-15.8 21.83-29.8 3-33.4-3-31.57-16.43 15.8-16.43 15.8z" class="C"/><path d="M505.1 632.5s-8.5 37.64-28.54 31c0 0-10.32 15.18-3 21.86 0 0 17.6 4.25 29.14-7.3s20-15.8 21.86-29.75 3-33.4-3-31.57-16.46 15.75-16.46 15.75z" class="H"/><path d="M374.6 729.36c0 .06 0 .12-.06.17a17.78 17.78 0 0 0-1 3.21l.5-1.45a8.81 8.81 0 0 0 .55-1.93zm-47.32 1.52c-2.5-.82-3.55-2.17-3.6-3.6-1 2-.38 4.2 3.15 5.36 7.32 2.4 38.92 5.74 44.95 6.36a.88.88 0 0 0 1-.87h0a.89.89 0 0 0-.79-.9c-6.65-.72-37.5-4-44.72-6.36zm-53.92-18.28a7.48 7.48 0 0 1 .59-1.29 5.92 5.92 0 0 0-1.43 2.36c-1.33 3.72 34.5 23.4 40.22 26.52a.66.66 0 0 0 1-.43h0a.66.66 0 0 0-.32-.73c-6.34-3.46-41.38-22.75-40.06-26.43zm43.5 20.64c-.32.1-.64.5-.93 1.1h.1c.26-.07.72-.6 1.28-1.4a1.18 1.18 0 0 1-.45.29z" fill="#dddbe2"/><path d="M486.93 597.1c-1.7 3.77-2.07 8-3.33 12a26.37 26.37 0 0 1-16.25 16.86c6.3 2.52 13.75-.56 18.63-5.66s7.73-11.9 10.47-18.5c7.08 4.76 6.22 15.7 8.6 24.22a26.86 26.86 0 0 0 14.3 17.09 25.6 25.6 0 0 0 21.9-.44c-6.5-7.92-15.73-18.78-14.63-29.32.9-8.54-5.24-15.06-4.8-23.62.6-12.16-4-18.3-12.75-26.1-5.1-4.56 2.92-11-3.64-9.1-2.58.74-5.3-2-7.83-1.1-5 1.8-10.5 1.12-15.65 2.33-26.83 6.28 7.48 35.85 5 41.36z" class="C"/><path d="M487.54 596.5c-1.7 3.77-2.07 8-3.33 12a26.37 26.37 0 0 1-16.25 16.86c6.3 2.52 13.75-.56 18.63-5.66s7.73-11.9 10.47-18.5c7.08 4.76 6.22 15.7 8.6 24.22a26.86 26.86 0 0 0 14.3 17.09 25.6 25.6 0 0 0 21.9-.44c-6.5-7.92-15.12-17-14-27.5.9-8.54-.44-17.3 0-25.87.6-12.16-5.35-23.87-14.06-31.67-5.1-4.56-13-5.14-15.57-4.23-5 1.8-10.5 1.12-15.65 2.33-26.86 6.3 7.47 35.85 4.97 41.36z" fill="#b96b6b"/><path d="M220.42 836.5c35-10.77 55.66-9.88 55.66-9.88l-2.87-16.27a12.3 12.3 0 0 0 2.42-2.13c0 0-3.6-19.75 0-24.7s13.47-49.82 13.47-49.82v-15.27c18-6.28 39.05-42.64 39.05-42.64l26.5 68.2s26.48 52.52 30.07 54.3c2.87 1.43 4.3 13.18 4.77 17.85l-.22.07.16 1.83.2-.14v.14a10.29 10.29 0 0 1 1.4-.82c-5.17 5.94-12.9 14.48-19.35 20.12-3.55 3.1 2.82 5.5 5.8 5.46a14.62 14.62 0 0 1 5 .71c15.1 5.2 39.9-13.8 39.9-13.8l-6.2-17.32 2.62-.2s-20.2-70.92-29.63-77.66a43 43 0 0 1-8-7.58 28 28 0 0 1-6.33-19.44l3.3-58.2c5.32-.78 8.75-1.43 8.75-1.43s1.24-15.9 1.2-28.1c0-6.35-.26-11.92-1.2-14.1-1.1-2.58-1.46-7.74-1.48-12.92 0-7 .58-13.56.58-13.56s7.18-9.43 17.06-31c4.35-9.5 5.48-17 5.38-22.38a30.53 30.53 0 0 0-.72-7.46 9.35 9.35 0 0 0-4.23-5.87c-5.68-3.48-18.6-12.07-22.42-20.4-4.84-10.56-11.83-12.06-12.1-12.12l-.43-1.86a17.45 17.45 0 0 0 5.62-8.52c1.46-4.5 1.76-9.3 3-13.87.6-2.2 1.43-4.33 2-6.53a25.79 25.79 0 0 0 .81-6.78 21 21 0 0 0-2-9.65c-2.32-4.77-6.94-8.52-12.2-9.14-2.9-.34-6.1.16-8.5-1.53-1.64-1.17-2.5-3.16-4-4.55-2.85-2.7-7.4-2.56-11.12-1.3a23.69 23.69 0 0 0-12.16 9.47c-1.73 2.66-2.94 5.7-5.16 8-1.87 1.9-4.32 3.13-6.38 4.83a13 13 0 0 0-5 10v.9c.1 3.86 2.8 7.7 6.57 8.48a9.7 9.7 0 0 0 3 .08A24.24 24.24 0 0 0 341 488l-.2 1h.2a34.65 34.65 0 0 1-1.62 4.56h-.3l.73-1.3-10.3-.7a17.26 17.26 0 0 0-8.72 1.63c-3.55 1.72-7.43 5-7.9 11.2C312 516 290 533.5 290 533.5c-7.63 12.12-57.46 14.36-57.46 14.36s.22.28.32.43l-1-.2-3.77-.7s-11.67-34.56-22.9-28.28 19.3 40.4 19.3 40.4l9.7.65a53.85 53.85 0 0 1-1.39 6.63h0c-.12.44-.2.72-.23.8h0s23.2-2.68 42.9-2.25h1.78l1.26-.06c1 10.83 16.44 32.84 16.44 32.84l10.25 2.15a79.68 79.68 0 0 1-11.6 17.59l-3.14 17.5.25-.06-.25 1.4a3.39 3.39 0 0 0 1.45-.76c-6.15 16.32-16.35 41.72-23.44 50.58-10.77 13.47-9.43 35-9.43 35s-10.77 56.56-10.32 66.88a26.6 26.6 0 0 1-3.89 14.13 46.72 46.72 0 0 0-5.54 7.87c-8.08 13.92-21.1 13-21.1 13-11.22 7.22 2.2 13.06 2.2 13.06zm69.33-273.8h0l1.16-.46.27-.1 1.1-.48.2-.1 1-.46.22-.1 1.06-.53.25-.13 1-.53h.08l2.24-1.3.16-.1.87-.53.2-.12.93-.6.2-.14.86-.57.08-.05.88-.6.2-.14.84-.6.13-.1.74-.54.16-.12.77-.6.16-.12.7-.55h.06l.86-.7.67-.55.06-.05.6-.5.1-.1.6-.5.1-.08.54-.5.52-.47 1.07-1.07 1.46-.12c1.24 1.6 1.73 4.46 1.78 7.73-.14 8.4-2.68 18.75-2.68 18.75a58.47 58.47 0 0 1-2.66 15.14 8.92 8.92 0 0 1-3.17-.77c0 0-.06.32-.15.86l-.86-.22-4.37-1.1s-3.63-18.48-10.98-26.12z" transform="translate(-56.59 -55.12)" fill="url(#F)"/><path d="M354.9 746.67l8.33 23.2s-22.8 17.5-37.63 13.88a41.42 41.42 0 0 0-6.8-1.1c-3.07-.23-8.35-2.46-5.1-5.3 10.52-9.2 24.54-26.3 24.54-26.3zm-138.5-2.2l3.94 22.35s-20.16-.88-54.34 9.64c0 0-13.15-5.7-2.2-12.7 0 0 12.7.88 20.6-12.7s12.7-11.83 12.7-11.83z" fill="#4f4d59"/><path d="M320.7 582.33l-3.86 68a28.13 28.13 0 0 0 6.71 19.89 41.23 41.23 0 0 0 7.24 6.75c9.2 6.57 28.92 75.8 28.92 75.8s-22.35 1.3-28.48 5.7c0 0-1.3-17.53-4.82-19.28s-29.36-53-29.36-53l-25.87-66.62s-20.6 35.5-38.13 41.63v14.9s-9.64 43.82-13.15 48.64 0 24.1 0 24.1-10.08 12.7-33.3-.88c0 0 7.45-8.33 7-18.4s10.1-65.28 10.1-65.28-1.3-21 9.2-34.18 28-63.54 28-63.54l12.06-25.95z" fill="#787c9c"/><path d="M355.55 752.8s-19.72-69.24-28.92-75.8a41.75 41.75 0 0 1-7.61-7.19 27.81 27.81 0 0 1-6.33-19.44l3.86-68-64.63-39.84.88-1.9 67.7 41.72-3.86 68a27.81 27.81 0 0 0 6.33 19.44 41.75 41.75 0 0 0 7.61 7.19c9.2 6.57 28.92 75.8 28.92 75.8s-22.35 1.3-28.48 5.7c0 0-.05-.68-.16-1.8 8.62-2.95 24.7-3.9 24.7-3.9zm-139.8-3.92s-3.5-19.28 0-24.1 13.15-48.64 13.15-48.64v-14.9c17.53-6.14 38.13-41.63 38.13-41.63l1.53 3.95c-5.94 9.42-21.8 32.8-35.7 37.68v14.9s-9.64 43.82-13.15 48.64 0 24.1 0 24.1-4.9 6.15-15.7 5.32c8.05-.7 11.74-5.32 11.74-5.32z" class="C"/><path d="M169.96 506.08l13.15.87v-11l-9.7-1.75s-11.4-33.74-22.35-27.6 18.9 39.5 18.9 39.5zM308 415.8s5.7 21.9 7.45 35.5-40.75 2.63-40.75 2.63 16.2-19.72 7-30.24z" class="Q"/><path d="M262 506.96l-.88 8.33 13.58-.88 13.58-11.83 13.58-38.13 8.78-13.57 6.57-8.33-2.63-10.08-3.23 2.6c-6.67 5.1-22.33 15.72-33.77 12.8a13.64 13.64 0 0 1-1.56-.49l-17.1 29.36z" fill="#e6e6f0"/><path d="M311.07 429.88s7 1.3 11.83 11.83c3.7 8.1 16.22 16.43 21.8 19.86a9.35 9.35 0 0 1 4.24 5.91c1.13 5 1.56 14.3-4.58 27.7-9.64 21-16.65 30.24-16.65 30.24s-1.75 21 .88 27.17 0 39.88 0 39.88-46 8.76-61.35 0-13.15-42.6-13.15-42.6-14.46 30.7-19.7 31.58l3-17.1s17.1-18.4 18-42.07c0 0 5.26-21.47.88-27.17 0 0-74.06 6.14-78.44.88 0 0 48.64-2.2 56.1-14 0 0 21.47-17.1 22.35-28.48a12.6 12.6 0 0 1 6.57-10.32 17.16 17.16 0 0 1 9.82-2.19l9.9.68s-17.08 30.18-16.17 34.18-.88 35.93-.88 35.93 19.72-42.5 28.48-47.33 18.8-24.6 18.8-24.6l-1.75-10" class="C"/><path d="M262 506.96l-.88 8.33 13.58-.88 13.58-11.83 13.58-38.13 8.78-13.57 6.57-8.33-2.63-10.08-3.23 2.6.6 3.46s-10.08 19.8-18.84 24.6-28.48 47.33-28.48 47.33 1.75-32 .88-35.93c-.6-2.68 7.08-17.45 12.07-26.68a13.64 13.64 0 0 1-1.56-.49l-17.1 29.36zm-83.43-.3l4.54.3v-11l-6-1.08c2.1 2.8 2.04 7.66 1.46 11.78z" class="C"/><path d="M311.07 428.52s7 1.3 11.83 11.83c3.7 8.1 16.22 16.43 21.8 19.86a9.35 9.35 0 0 1 4.24 5.91c1.13 5 1.56 14.3-4.58 27.7-9.64 21-16.65 30.24-16.65 30.24s-1.75 21 .88 27.17 0 39.88 0 39.88-46 8.76-61.35 0-13.15-42.5-13.15-42.5-14.46 30.67-19.7 31.54l3-17.1s17.1-18.4 18-42.07c0 0 5.26-21.47.88-27.17 0 0-17.1 18.4-36.37 18s-42.07 2.2-42.07 2.2 4.38-14 0-19.28c0 0 48.64-2.2 56.1-14 0 0 21.47-17.1 22.35-28.48a12.6 12.6 0 0 1 6.58-10.36 17.16 17.16 0 0 1 9.82-2.19l9.9.68s-17.1 30.22-16.18 34.16-.88 35.93-.88 35.93 19.72-42.5 28.48-47.33 18.84-24.6 18.84-24.6l-1.75-10" fill="#67647e"/><use xlink:href="#Z" class="C"/><g fill="#ba7855"><ellipse cx="264.62" cy="512.44" rx="1.53" ry="2.19"/><ellipse cx="260.24" cy="527.78" rx="1.53" ry="2.19"/></g><path d="M325.53 590.66s2.63-33.74 0-39.88-.88-27.17-.88-27.17 7-9.2 16.65-30.24c6.14-13.4 5.7-22.7 4.58-27.7a9.35 9.35 0 0 0-4.25-5.91c-5.6-3.43-18.1-11.77-21.8-19.86-2.72-5.93-6.13-8.94-8.6-10.43l-.17-1s7 1.3 11.83 11.83c3.7 8.1 16.22 16.43 21.8 19.86a9.35 9.35 0 0 1 4.25 5.91c1.13 5 1.56 14.3-4.58 27.7-9.64 21-16.65 30.24-16.65 30.24s-1.75 21 .88 27.17 0 39.88 0 39.88-32.87 6.26-52.3 2.9c19.64 2.33 49.25-3.3 49.25-3.3zM266.4 474.53c.6 2.7 0 18.58-.5 28.3l-3.45 7.2s1.75-32 .88-35.93c-.83-3.75 14.56-31.25 16.1-34l3.2.22s-17.13 30.28-16.22 34.22zm-49.55 36.8c19.28.44 36.37-18 36.37-18a7 7 0 0 1 1.11 2.38c-5 4.7-19 16.38-34.4 16-19.28-.44-42.07 2.2-42.07 2.2s.1-.3.23-.8a348.85 348.85 0 0 1 38.77-1.78zm34.18 36.8s-.18 2.74-.08 6.85c-4.56 9-12.86 24.52-16.57 25.14l.65-3.6c6.38-8 16-28.4 16-28.4z" class="C"/><path fill="url(#G)" d="M151.35 437.56H256.1v78.94H151.35z"/><use xlink:href="#T" x="49" y="1" class="D"/><path d="M163.77 446.07h33.1v18.72h-33.1z" class="B E"/><g class="F"><path d="M204.8 446.07h38.87v4.32H204.8zm0 7.2h27.36v4.32H204.8zm0 7.2h38.87v4.32H204.8zm-41.03 7.2h79.9V472h-79.9z"/><use xlink:href="#U" x="49" y="-76.03"/><use xlink:href="#U" x="49" y="-68.84"/><path d="M163.77 489.26h73.43v4.32h-73.43z"/><use xlink:href="#U" x="49" y="-54.44"/><use xlink:href="#U" x="49" y="-47.24"/></g><path d="M238.76 543.77l9.3 2 7.34 1.5-3.94-11-2.74-.7-4.27-1.06s-6.13-30.65-18.4-28.45 12.7 37.7 12.7 37.7z" class="Q"/><path d="M248.07 545.73l7.34 1.55-3.94-11-2.74-.7a43.77 43.77 0 0 0-.66 10.14z" class="C"/><use xlink:href="#Z" y="-0.87" fill="#67647e"/><path d="M307.56 416.7l2.08 8.42a23.65 23.65 0 0 1-26.12 12c1.05-4.5.82-9-2.26-12.57z" class="C"/><circle cx="289.16" cy="413.19" r="23.66" class="Q"/><path d="M268.6 406.67a12.67 12.67 0 0 1-5.28.32c-3.7-.76-6.32-4.5-6.4-8.28a12.72 12.72 0 0 1 4.88-9.77c2-1.67 4.4-2.86 6.23-4.72 2.17-2.2 3.35-5.2 5-7.8a23.13 23.13 0 0 1 11.88-9.24c3.63-1.23 8.07-1.37 10.86 1.27 1.43 1.35 2.27 3.3 3.87 4.44 2.32 1.65 5.46 1.16 8.3 1.5a15.8 15.8 0 0 1 11.91 8.92 22.32 22.32 0 0 1 1.16 15.16c-.55 2.15-1.35 4.24-1.94 6.38-1.23 4.46-1.52 9.14-2.94 13.54s-4.35 8.7-8.78 10a27.76 27.76 0 0 0-2.82-14.3 4.1 4.1 0 0 0-2-2.22 4.85 4.85 0 0 0-2.41 0 24 24 0 0 1-16-3.24c-1.68-1-4.3-4.5-6.1-4.86-2.27-.4-7 2.36-9.4 2.9z" class="C"/><path d="M268.6 405.8a12.67 12.67 0 0 1-5.28.32c-3.7-.76-6.32-4.5-6.4-8.28a12.72 12.72 0 0 1 4.88-9.77c2-1.67 4.4-2.86 6.23-4.72 2.17-2.2 3.35-5.2 5-7.8a23.13 23.13 0 0 1 11.88-9.24c3.63-1.23 8.07-1.37 10.86 1.27 1.43 1.35 2.27 3.3 3.87 4.44 2.32 1.65 5.46 1.16 8.3 1.5a15.8 15.8 0 0 1 11.91 8.92 22.32 22.32 0 0 1 1.16 15.16c-.55 2.15-1.35 4.24-1.94 6.38-1.23 4.46-1.52 9.14-2.94 13.54s-4.35 8.7-8.78 10a27.76 27.76 0 0 0-2.82-14.3 4.1 4.1 0 0 0-2-2.22 4.85 4.85 0 0 0-2.41 0 24 24 0 0 1-16-3.24c-1.68-1-4.3-4.5-6.1-4.86-2.27-.4-7 2.37-9.4 2.9z" fill="#503f43"/><path d="M86.17 760.3a11.67 11.67 0 0 0 3.83-5.78c.5-2.3-.48-5.05-2.68-5.9-2.46-.94-5.1.76-7.08 2.5s-4.28 3.7-6.9 3.32a10.48 10.48 0 0 0 3.24-9.81 4.1 4.1 0 0 0-.9-2c-1.37-1.46-3.84-.83-5.48.32-5.2 3.66-6.65 10.72-6.68 17.08-.52-2.3-.08-4.68-.1-7s-.66-5-2.64-6.22a8 8 0 0 0-4-.95c-2.34-.1-4.94.15-6.54 1.86-2 2.12-1.47 5.7.26 8s4.35 3.8 6.77 5.42a15 15 0 0 1 4.84 4.61 4.57 4.57 0 0 1 .36.82H77.1a40.83 40.83 0 0 0 9.06-6.27zm869-139a11.67 11.67 0 0 0 3.83-5.78c.5-2.3-.48-5.05-2.68-5.9-2.46-.94-5.1.76-7.08 2.5s-4.28 3.7-6.9 3.32a10.48 10.48 0 0 0 3.24-9.81 4.1 4.1 0 0 0-.9-2c-1.37-1.46-3.84-.83-5.48.32-5.2 3.66-6.65 10.72-6.68 17.08-.52-2.3-.08-4.68-.1-7s-.66-5-2.64-6.22a8 8 0 0 0-4-.95c-2.34-.1-4.94.15-6.54 1.86-2 2.12-1.47 5.7.26 8s4.35 3.8 6.77 5.42a15 15 0 0 1 4.84 4.61 4.57 4.57 0 0 1 .36.82h14.65a40.83 40.83 0 0 0 9.04-6.27z" class="B"/><path d="M1141.74 375.8c-2.07-6.06-5.06-13.74-7.42-15.55a2.21 2.21 0 0 0-.47-.29h-.3v-7.5l-5.58.9a53.35 53.35 0 0 1-2-8.29 3.85 3.85 0 0 0 4.19.84c-.1-.15-.17-.3-.25-.47l.25-.1a10.37 10.37 0 0 1-1.35-5.08 18.51 18.51 0 0 1 .77-4.8c1-3.45 2.7-6.67 3.63-10.14a24.64 24.64 0 0 0 .84-6.85 25 25 0 0 0-2.6-11.3 6.6 6.6 0 0 0-2-2.58 25.49 25.49 0 0 0-2.42-1.18 13.07 13.07 0 0 1-3.52-3.51 31.56 31.56 0 0 0-15.25-10.18 8.93 8.93 0 0 0-4.88-.39c-3.75 1-5.1 5.65-8.15 8.1-2.68 2.15-6.36 2.37-9.73 3.1s-6.76 2.15-9.06 4.75a9.83 9.83 0 0 0-2.43 6.55 6.59 6.59 0 0 0 2.68 5.86 8.42 8.42 0 0 0 7.11 1 24.18 24.18 0 0 0 18.31 30.4l.65 1.17a50.08 50.08 0 0 1 4.54 11.85c-5.14 2.9-10.75 5.64-14.14 5.9a23.82 23.82 0 0 1-.74 3.92 21.62 21.62 0 0 1-4.45 8.75c-4.6 5.18-25.34 44.34-25.34 44.34l-1.72 4.22c-12.87 1.58-33.88 3.86-39.74 2.7l-23-21.88s-7.44 5.68-6.8 12.58l-4.15-3.94s-21.88 16.7 12.67 27.64l52.57 6.1c-5 15.1-9.68 32.7-8.23 42.27h.43a19.88 19.88 0 0 0 3-.23l-.1 1.7-5.06 90.66s-1.15 16.7 14.4 24.18c0 0 19 55.85 11.52 62.2 0 0 .9.47 2.4 1.12l-15.63 13.85s-11.52 2.88-17.85 2.3a4.57 4.57 0 0 0-5.05 3.4c0 .12 0 .24-.06.36v1.1c0 .04 0 .25.07.37v.14q.05.2.13.4l.05.12a3.39 3.39 0 0 0 .18.39v.1c.07.13.15.25.23.38l.07.1q.14.2.3.4l.1.1c.12.14.25.27.38.4l.06.05.43.37.1.07a6.88 6.88 0 0 0 .52.37l.12.08c.2.12.4.24.6.35h.1l.65.32h.1l.76.3.16.06.83.27h.14l.9.24h.07l1 .2h.2l1.08.16h.2l1.22.12c2.37.18 5.56.25 9.25.23h0v.6c0 .12 0 .25.07.37v.14q.05.2.13.4l.05.12a3.39 3.39 0 0 0 .18.39v.1c.07.13.15.25.23.38l.07.1q.14.2.3.4l.1.1a7.18 7.18 0 0 0 .38.4l.06.05.43.37.1.07a6.88 6.88 0 0 0 .52.37l.13.08c.2.12.4.24.6.35h.1l.65.32h.1l.76.3.16.06.83.27h.14l.9.24h.07l1 .2h.2l1.08.16h.2l1.22.12c15 1.15 62.76-2.3 62.76-2.3v-.3c.47-2.23 2.77-15.2-5.4-24.77.24-.25.48-.52.7-.8 0 0-6.33-10.94-2.88-14.4s-17.27-63.34-17.27-63.34-10.94-17.27-4.6-36.85-.58-40.88-.58-40.88 15.1-4.5 15.4-23.08v-1.73a6.11 6.11 0 0 0 1 .06 4.47 4.47 0 0 0 .64 0s-2.88-10.36.58-17.85 10.94-.58 17.85-31.1c5-22.08 9.4-47.48 11.45-59.84a31.51 31.51 0 0 0-.91-14.88zm-131.4 64.77l-5.25-5c1.74.72 3.67 1.43 5.83 2.1l19.8 2.3c-8.84.82-17.05 1.26-20.38.6z" transform="translate(-56.59 -55.12)" fill="url(#H)"/><use xlink:href="#a" class="N"/><use xlink:href="#a" class="G"/><use xlink:href="#b" fill="#47465a"/><use xlink:href="#b" class="G"/><path d="M1049.26 632.66a31.2 31.2 0 0 1-.71 6.13c0 0-47 3.4-61.66 2.26-7.07-.54-10.08-3.18-10.62-5.7-.64 2.9 1.92 6.74 10.62 7.4 14.7 1.13 61.66-2.26 61.66-2.26a32.69 32.69 0 0 0 .71-7.83z" opacity=".3" class="D"/><path d="M1041.76 291.45s12.45 17.54 7.92 29.42 23.73-12.45 23.73-12.45-9.05-15.84-4.53-32.8z" class="N"/><use xlink:href="#b" x="19.83" y="6.8" fill="#47465a"/><use xlink:href="#c" fill="#565171"/><use xlink:href="#c" class="G"/><path d="M1063.83 621.82c-9.62 11.88-32.24 0-32.24 0a3.6 3.6 0 0 0 1-1.54c4.15-11.28-14-65.2-14-65.2-15.27-7.35-17-24.9-17-24.9l-4.52-102.4 31.1-11.88 24.33 18.67a44.12 44.12 0 0 1 1.56 11.83c-.3 18.27-15.14 22.68-15.14 22.68s6.8 20.93.57 40.16 4.53 36.2 4.53 36.2 20.37 58.83 17 62.23 2.8 14.14 2.8 14.14z" fill="#565171"/><path d="M1054.07 446.4c-4.9-.7-14.8-6.6-19.88-9.8l-3.18-2s-5.1-14.14-18.67-3.4a50.82 50.82 0 0 1-14.75 8.34 34.51 34.51 0 0 1-6.3 1.58l1.25-22.37 15.84-9.62 12.5 9.58 7.3-2.8 24.33 18.67a44.12 44.12 0 0 1 1.56 11.79z" class="C"/><path d="M1084.7 337.88c-2 12.14-6.34 37.1-11.25 58.8-6.8 30-14.14 23.2-17.54 30.55s-.57 17.54-.57 17.54c-5.66.57-24.33-11.88-24.33-11.88s-5.1-14.14-18.67-3.4S988 439.67 988 439.67c-2.83-18.67 18.1-68.45 18.1-68.45s20.37-38.47 24.9-43.56a21.24 21.24 0 0 0 4.37-8.6 23.4 23.4 0 0 0 .72-3.85c7.35-.57 25.46-13 25.46-13l14.14-2.26v7.35a2.17 2.17 0 0 1 .46.28c2.33 1.78 5.26 9.33 7.3 15.28a31 31 0 0 1 1.26 15.02z" fill="#f68080"/><path d="M1073.4 314.65s-14.7-11.88-36.77 26.6-27.15 32.24-27.15 32.24 4.53 17 2.26 20.37c0 0 15.27-1.13 20.93 0s40.73-42.97 40.73-42.97 18.14-24.92 0-36.23z" class="C"/><path d="M1072.88 312.38s-14.7-11.88-36.77 26.6-27.15 32.24-27.15 32.24 17.54 19.23 23.2 20.37 40.73-43 40.73-43 18.1-24.88 0-36.2z" class="C"/><path d="M1011.26 390.17c.23-4.2-1.35-11.56-2.26-15.38l5.6-.75 4 17zm58.22-113.42l-27.15 15.84a58 58 0 0 1 3.16 5.18 23.87 23.87 0 0 0 4.76.48c7.25 0 10.63-7.6 15-12.73-.3-4.1 3.02-4.22 4.23-8.77z" class="C"/><circle cx="1049.69" cy="273.35" r="23.76" class="N"/><path fill="url(#I)" d="M821.62 300.43h191.35v144.2H821.62z"/><path d="M825.9 303.66h182.77V441.4H825.9z" class="D"/><path d="M843.8 315.58h60.92V350H843.8z" class="B E"/><g class="F"><use xlink:href="#K" x="487.61" y="94.95"/><path d="M919.28 328.83h50.33v7.95h-50.33z"/><use xlink:href="#K" x="487.61" y="121.44"/><use xlink:href="#L" x="487.62" y="94.94"/><use xlink:href="#L" x="487.62" y="108.2"/><use xlink:href="#L" x="487.62" y="121.44"/><path d="M843.8 395.05h135.1V403H843.8z"/><use xlink:href="#L" x="487.62" y="147.94"/><use xlink:href="#L" x="487.62" y="161.17"/></g><path d="M1019.63 254.13a16.24 16.24 0 0 1 8.9-4.67c3.3-.7 6.92-.93 9.56-3 3-2.4 4.32-6.93 8-7.94a8.77 8.77 0 0 1 4.79.38 31 31 0 0 1 15 10 12.84 12.84 0 0 0 3.45 3.45 25 25 0 0 1 2.38 1.16 6.48 6.48 0 0 1 1.94 2.53 24.59 24.59 0 0 1 1.72 17.27c-.92 3.4-2.58 6.57-3.56 10s-1.23 7.24.57 10.27c-1.74.9-3.94-.23-5-1.85s-1.42-3.62-2-5.5a21 21 0 0 0-6.13-9.53c-1.78-1.58-5-2.64-6.2-.6-.48.8-.45 1.8-.86 2.6-.8 1.6-3.15 1.92-4.7 1a7.21 7.21 0 0 1-2.94-4.36c-2.33-7.88-6.3-12.84-14.73-9.47-3.14 1.26-6.84 2.1-9.86-.05-3.94-2.85-3.17-8.5-.32-11.7z" class="C"/><path d="M1019.63 253.56a16.24 16.24 0 0 1 8.9-4.67c3.3-.7 6.92-.93 9.56-3 3-2.4 4.32-6.93 8-7.94a8.77 8.77 0 0 1 4.79.38 31 31 0 0 1 15 10 12.84 12.84 0 0 0 3.45 3.45 25 25 0 0 1 2.38 1.16 6.48 6.48 0 0 1 1.94 2.53 24.59 24.59 0 0 1 1.72 17.27c-.92 3.4-2.58 6.57-3.56 10s-1.23 7.24.57 10.27c-1.74.9-3.94-.23-5-1.85s-1.42-3.62-2-5.5a21 21 0 0 0-6.13-9.53c-1.78-1.58-5-2.64-6.2-.6-.48.8-.45 1.8-.86 2.6-.8 1.6-3.15 1.92-4.7 1a7.21 7.21 0 0 1-2.94-4.36c-2.33-7.88-6.3-12.84-14.73-9.47-3.14 1.26-6.84 2.1-9.86-.05-3.94-2.85-3.17-8.48-.32-11.7z" fill="#b96b6b"/><path d="M1076.17 307.58h-11.5s-22.63 11.3-23.2 10.75c-.38-.38-3.88.27-6.1.74a23.4 23.4 0 0 0 .72-3.85c7.35-.57 25.46-13 25.46-13l14.14-2.26v7.35a2.17 2.17 0 0 1 .47.27z" class="G"/><path d="M1069.06 639.45a31.2 31.2 0 0 1-.71 6.13s-47 3.4-61.66 2.26c-7.07-.54-10.08-3.18-10.62-5.7-.64 2.9 1.92 6.74 10.62 7.4 14.7 1.13 61.66-2.26 61.66-2.26a32.69 32.69 0 0 0 .71-7.83z" opacity=".3" class="D"/><path d="M1006.97 428.88c-7.63 6-14.38 8.5-18.8 9.5 0 .42.08.84.14 1.24 0 0 10.75.57 24.33-10.18a18.23 18.23 0 0 1 7.27-3.8c-2.96-1.37-7.2-1.28-12.93 3.23zm76.78-106c-2-6-5-13.5-7.3-15.28a2.17 2.17 0 0 0-.46-.28s-4.68.16-4.53.28c2.33 1.78 4.6 8.76 6.62 14.7a31 31 0 0 1 1.23 15c-2 12.14-6.34 37.1-11.25 58.8-6.8 30-14.14 23.2-17.54 30.55-2.78 6-1.4 13.94-.8 16.6 2.42 1 4.52 1.63 5.88 1.5 0 0-2.83-10.18.57-17.54s10.75-.57 17.54-30.55c4.9-21.7 9.23-46.65 11.25-58.8a31 31 0 0 0-1.23-14.99z" class="G"/><path d="M1018.57 391.02l-63.3-7.36c-33.94-10.75-12.45-27.15-12.45-27.15l22.63 21.5c6.53 1.3 32.13-1.74 43.6-3.2l5.6-.75z" class="N"/><path d="M1073.4 313.52s-14.7-11.88-36.77 26.6-27.15 32.24-27.15 32.24 4.53 17 2.26 20.37c0 0 15.27-1.13 20.93 0s40.73-43 40.73-43 18.14-24.9 0-36.2z" fill="#f68080"/></svg>